<svg width="748" height="602" viewBox="0 0 748 602" fill="none" xmlns="http://www.w3.org/2000/svg">
<path d="M4.5526 380.898H746.622C746.622 380.898 748.855 412.776 746.622 433C729.143 591.258 534.808 602 375.587 602C216.366 602 22.0315 591.258 4.5526 433C2.31897 412.776 4.5526 380.898 4.5526 380.898Z" fill="#0E003F"/>
<path d="M274.283 57.5241C377.647 21.2238 452.351 -17.5559 561.765 8.51922C693.213 39.8457 746.574 157.878 746.574 222.181C746.574 286.483 746.574 322.535 746.574 386.837H13.2022C13.2022 386.837 -16.5027 282.988 13.2022 222.181C57.7181 131.054 151.787 100.543 274.283 57.5241Z" fill="#0B003C"/>
<path d="M296.065 88.2394C383.777 55.3348 447.169 20.1828 540.015 43.8187C651.558 72.2148 696.839 179.206 696.839 237.493C696.839 295.78 696.839 328.46 696.839 386.747H74.5191C74.5191 386.747 49.3123 292.612 74.5191 237.493C112.294 154.891 192.119 127.234 296.065 88.2394Z" fill="#13065A"/>
<path d="M321.886 149.952C392.499 123.441 443.533 95.12 518.279 114.163C608.078 137.041 644.531 223.242 644.531 270.204C644.531 317.165 644.531 343.494 644.531 390.455H143.529C143.529 390.455 123.236 314.612 143.529 270.204C173.94 203.652 238.203 181.37 321.886 149.952Z" fill="#280078"/>
<g filter="url(#filter0_d_12_140)">
<ellipse cx="502.238" cy="244.779" rx="61.6453" ry="60.6186" fill="white"/>
</g>
<path d="M89.4948 382.807C89.4948 382.807 365.697 185.919 539.513 243.713C630.903 274.1 717.782 382.807 717.782 382.807H89.4948Z" fill="#1100AD"/>
<ellipse cx="377.867" cy="386.587" rx="368.707" ry="19.7672" fill="#3700FF"/>
<path d="M574.892 360.298H586.411C586.411 360.298 586.411 384.857 586.411 386.301C586.411 387.746 583.022 387.746 580.652 387.746C578.281 387.746 574.892 387.746 574.892 386.301C574.892 384.857 574.892 360.298 574.892 360.298Z" fill="#1F008F"/>
<path d="M580.652 279.399L597.93 311.181H563.374L580.652 279.399Z" fill="#5145FF"/>
<path d="M580.633 299.624L605.572 329.961H555.695L580.633 299.624Z" fill="#5145FF"/>
<path d="M580.652 316.959L609.448 345.852H551.855L580.652 316.959Z" fill="#5145FF"/>
<path d="M580.652 319.849L613.288 368.966H548.016L580.652 319.849Z" fill="#5145FF"/>
<path d="M479.951 350.317H495.658C495.658 350.317 495.658 383.806 495.658 385.776C495.658 387.746 491.038 387.746 487.805 387.746C484.572 387.746 479.951 387.746 479.951 385.776C479.951 383.806 479.951 350.317 479.951 350.317Z" fill="#1F008F"/>
<path d="M479.072 386.684H494.154L436.647 406.451H363.872L479.072 386.684Z" fill="#1100AD"/>
<path d="M573.213 386.684H584.74L573.213 403.699L533.849 407.202L476.596 405.951L573.213 386.684Z" fill="#1100AD"/>
<path d="M448.206 143.928C448.206 143.928 453.016 131.036 461.488 127.271C469.364 123.77 485.395 125.938 485.395 125.938C485.395 125.938 489.557 111.577 498.677 107.614C505.757 104.539 519.928 105.948 519.928 105.948C519.928 105.948 506.547 105.158 500.005 108.281C491.106 112.529 488.052 127.271 488.052 127.271C488.052 127.271 470.117 125.161 461.488 129.269C453.853 132.903 448.206 143.928 448.206 143.928Z" fill="white"/>
<path d="M449.963 113.991C449.963 113.991 452.983 95.5678 464.046 90.7112C474.306 86.2072 495.504 91.6069 495.504 91.6069C495.504 91.6069 497.127 70.8747 509.232 65.837C518.465 61.9941 537.092 65.9131 537.092 65.9131C537.092 65.9131 519.608 63.1356 511.137 66.9927C499.139 72.456 499.315 93.9183 499.315 93.9183C499.315 93.9183 475.563 88.326 464.472 93.6962C454.7 98.4279 449.963 113.991 449.963 113.991Z" fill="white"/>
<path d="M487.805 240L511.366 283.339H464.244L487.805 240Z" fill="#5145FF"/>
<path d="M487.78 267.579L521.787 308.948H453.773L487.78 267.579Z" fill="#5145FF"/>
<path d="M487.805 291.219L527.073 330.618H448.537L487.805 291.219Z" fill="#5145FF"/>
<path d="M487.805 295.159L532.309 362.137H443.301L487.805 295.159Z" fill="#5145FF"/>
<defs>
<filter id="filter0_d_12_140" x="388.693" y="132.261" width="227.091" height="225.037" filterUnits="userSpaceOnUse" color-interpolation-filters="sRGB">
<feFlood flood-opacity="0" result="BackgroundImageFix"/>
<feColorMatrix in="SourceAlpha" type="matrix" values="0 0 0 0 0 0 0 0 0 0 0 0 0 0 0 0 0 0 127 0" result="hardAlpha"/>
<feMorphology radius="22" operator="dilate" in="SourceAlpha" result="effect1_dropShadow_12_140"/>
<feOffset/>
<feGaussianBlur stdDeviation="14.95"/>
<feComposite in2="hardAlpha" operator="out"/>
<feColorMatrix type="matrix" values="0 0 0 0 1 0 0 0 0 1 0 0 0 0 1 0 0 0 0.41 0"/>
<feBlend mode="normal" in2="BackgroundImageFix" result="effect1_dropShadow_12_140"/>
<feBlend mode="normal" in="SourceGraphic" in2="effect1_dropShadow_12_140" result="shape"/>
</filter>
</defs>
</svg>
