<svg width="260" height="120" viewBox="0 0 260 120" fill="none" xmlns="http://www.w3.org/2000/svg">
<path d="M17.821 69.9998H2.00284L26.1051 0.181641H45.1278L69.196 69.9998H53.3778L35.8892 16.1362H35.3438L17.821 69.9998ZM16.8324 42.5566H54.196V54.0794H16.8324V42.5566Z" fill="currentColor"/>
<path d="M77.5994 69.9998V0.181641H92.3608V57.8294H122.293V69.9998H77.5994Z" fill="currentColor"/>
<path d="M132.068 69.9998V0.181641H160.023C165.159 0.181641 169.443 0.943005 172.875 2.46573C176.307 3.98846 178.886 6.1021 180.614 8.80664C182.341 11.4885 183.205 14.5794 183.205 18.0794C183.205 20.8066 182.659 23.2044 181.568 25.2726C180.477 27.318 178.977 28.9998 177.068 30.318C175.182 31.6135 173.023 32.5339 170.591 33.0794V33.7612C173.25 33.8748 175.739 34.6248 178.057 36.0112C180.398 37.3975 182.295 39.3407 183.75 41.8407C185.205 44.318 185.932 47.2725 185.932 50.7044C185.932 54.4089 185.011 57.7157 183.17 60.6248C181.352 63.5112 178.659 65.7953 175.091 67.4771C171.523 69.1589 167.125 69.9998 161.898 69.9998H132.068ZM146.83 57.9316H158.864C162.977 57.9316 165.977 57.1476 167.864 55.5794C169.75 53.9885 170.693 51.8748 170.693 49.2385C170.693 47.3066 170.227 45.6021 169.295 44.1248C168.364 42.6476 167.034 41.4885 165.307 40.6476C163.602 39.8066 161.568 39.3862 159.205 39.3862H146.83V57.9316ZM146.83 29.3976H157.773C159.795 29.3976 161.591 29.0453 163.159 28.3407C164.75 27.6135 166 26.5907 166.909 25.2726C167.841 23.9544 168.307 22.3748 168.307 20.5339C168.307 18.0112 167.409 15.9771 165.614 14.4316C163.841 12.8862 161.318 12.1135 158.045 12.1135H146.83V29.3976Z" fill="currentColor"/>
<path d="M207.571 69.9998H191.753L215.855 0.181641H234.878L258.946 69.9998H243.128L225.639 16.1362H225.094L207.571 69.9998ZM206.582 42.5566H243.946V54.0794H206.582V42.5566Z" fill="currentColor"/>
<path d="M23.9701 102.556H18.2735C18.1694 101.829 17.957 101.183 17.6362 100.619C17.3153 100.046 16.9035 99.5585 16.4006 99.1566C15.8977 98.7547 15.3168 98.4469 14.6578 98.2331C14.0075 98.0193 13.3008 97.9124 12.5378 97.9124C11.1592 97.9124 9.95827 98.2502 8.93513 98.9257C7.91199 99.5927 7.11863 100.568 6.55503 101.85C5.99144 103.124 5.70964 104.672 5.70964 106.493C5.70964 108.366 5.99144 109.939 6.55503 111.214C7.1273 112.488 7.925 113.45 8.94814 114.1C9.97128 114.749 11.1548 115.074 12.4988 115.074C13.2531 115.074 13.9511 114.976 14.5928 114.779C15.2431 114.583 15.8197 114.296 16.3225 113.92C16.8254 113.535 17.2416 113.069 17.5711 112.522C17.9093 111.975 18.1434 111.35 18.2735 110.649L23.9701 110.675C23.8227 111.881 23.4542 113.044 22.8646 114.164C22.2836 115.275 21.4989 116.272 20.5105 117.152C19.5307 118.025 18.3602 118.717 16.9989 119.23C15.6462 119.735 14.1159 119.987 12.4077 119.987C10.032 119.987 7.90766 119.457 6.03479 118.396C4.1706 117.336 2.69658 115.801 1.61275 113.792C0.537582 111.782 0 109.349 0 106.493C0 103.629 0.546253 101.192 1.63876 99.1823C2.73126 97.1727 4.21395 95.6421 6.08682 94.5903C7.95968 93.53 10.0667 92.9998 12.4077 92.9998C13.9511 92.9998 15.3818 93.2136 16.6997 93.6412C18.0263 94.0687 19.2012 94.6929 20.2244 95.5138C21.2475 96.3262 22.0799 97.3224 22.7215 98.5024C23.3718 99.6825 23.788 101.034 23.9701 102.556Z" fill="currentColor"/>
<path d="M28.0085 119.628V93.359H33.6401V104.197H45.0723V93.359H50.6909V119.628H45.0723V108.777H33.6401V119.628H28.0085Z" fill="currentColor"/>
<path d="M55.3341 119.628V93.359H65.843C67.8546 93.359 69.5713 93.7138 70.9933 94.4236C72.424 95.1248 73.5122 96.121 74.2579 97.4122C75.0122 98.6948 75.3894 100.204 75.3894 101.94C75.3894 103.684 75.0079 105.185 74.2448 106.442C73.4818 107.691 72.3763 108.648 70.9283 109.315C69.489 109.982 67.7462 110.316 65.6999 110.316H58.6636V105.852H64.7895C65.8646 105.852 66.7577 105.707 67.4687 105.416C68.1797 105.125 68.7086 104.689 69.0554 104.108C69.4109 103.526 69.5887 102.804 69.5887 101.94C69.5887 101.068 69.4109 100.332 69.0554 99.7338C68.7086 99.1352 68.1754 98.682 67.4557 98.3742C66.7447 98.0578 65.8473 97.8996 64.7635 97.8996H60.9657V119.628H55.3341ZM69.7188 107.673L76.3388 119.628H70.1219L63.6449 107.673H69.7188Z" fill="currentColor"/>
<path d="M85.0008 93.359V119.628H79.3692V93.359H85.0008Z" fill="currentColor"/>
<path d="M104.084 100.914C103.98 99.8792 103.533 99.0754 102.744 98.5024C101.955 97.9295 100.884 97.6431 99.5318 97.6431C98.6127 97.6431 97.8367 97.7713 97.2037 98.0279C96.5708 98.2758 96.0852 98.6222 95.747 99.0668C95.4176 99.5115 95.2528 100.016 95.2528 100.58C95.2355 101.051 95.3352 101.461 95.5519 101.812C95.7774 102.162 96.0852 102.466 96.4754 102.722C96.8656 102.97 97.3164 103.188 97.828 103.377C98.3396 103.556 98.8858 103.71 99.4668 103.838L101.86 104.403C103.022 104.659 104.088 105.001 105.059 105.429C106.03 105.856 106.872 106.382 107.583 107.006C108.294 107.631 108.844 108.366 109.234 109.213C109.633 110.059 109.837 111.03 109.846 112.124C109.837 113.732 109.421 115.126 108.597 116.306C107.782 117.477 106.603 118.388 105.059 119.038C103.525 119.679 101.673 120 99.5058 120C97.3555 120 95.4826 119.675 93.8872 119.025C92.3004 118.375 91.0605 117.413 90.1675 116.139C89.283 114.856 88.8192 113.27 88.7758 111.38H94.2253C94.286 112.261 94.5418 112.997 94.9927 113.587C95.4522 114.168 96.0635 114.608 96.8265 114.908C97.5982 115.198 98.4696 115.344 99.4408 115.344C100.395 115.344 101.223 115.207 101.925 114.933C102.636 114.66 103.186 114.279 103.577 113.792C103.967 113.304 104.162 112.744 104.162 112.111C104.162 111.521 103.984 111.025 103.629 110.624C103.282 110.222 102.77 109.88 102.094 109.597C101.426 109.315 100.607 109.059 99.6358 108.828L96.7355 108.11C94.4898 107.571 92.7166 106.729 91.416 105.583C90.1154 104.437 89.4695 102.893 89.4781 100.952C89.4695 99.3618 89.8987 97.9723 90.7657 96.7837C91.6415 95.5951 92.8424 94.6673 94.3684 94.0003C95.8944 93.3333 97.6286 92.9998 99.5708 92.9998C101.548 92.9998 103.273 93.3333 104.747 94.0003C106.23 94.6673 107.383 95.5951 108.207 96.7837C109.031 97.9723 109.455 99.349 109.481 100.914H104.084Z" fill="currentColor"/>
<path d="M112.619 97.9381V93.359H134.495V97.9381H126.34V119.628H120.774V97.9381H112.619Z" fill="currentColor"/>
<path d="M161.359 106.493C161.359 109.358 160.809 111.795 159.707 113.805C158.615 115.814 157.124 117.349 155.233 118.409C153.352 119.461 151.236 119.987 148.886 119.987C146.519 119.987 144.395 119.457 142.513 118.396C140.632 117.336 139.145 115.801 138.052 113.792C136.96 111.782 136.414 109.349 136.414 106.493C136.414 103.629 136.96 101.192 138.052 99.1823C139.145 97.1727 140.632 95.6421 142.513 94.5903C144.395 93.53 146.519 92.9998 148.886 92.9998C151.236 92.9998 153.352 93.53 155.233 94.5903C157.124 95.6421 158.615 97.1727 159.707 99.1823C160.809 101.192 161.359 103.629 161.359 106.493ZM155.65 106.493C155.65 104.638 155.368 103.073 154.804 101.799C154.249 100.525 153.464 99.5585 152.45 98.9001C151.436 98.2416 150.248 97.9124 148.886 97.9124C147.525 97.9124 146.337 98.2416 145.323 98.9001C144.308 99.5585 143.519 100.525 142.956 101.799C142.401 103.073 142.123 104.638 142.123 106.493C142.123 108.349 142.401 109.914 142.956 111.188C143.519 112.462 144.308 113.428 145.323 114.087C146.337 114.745 147.525 115.074 148.886 115.074C150.248 115.074 151.436 114.745 152.45 114.087C153.464 113.428 154.249 112.462 154.804 111.188C155.368 109.914 155.65 108.349 155.65 106.493Z" fill="currentColor"/>
<path d="M165.531 119.628V93.359H176.04C178.06 93.359 179.781 93.7395 181.203 94.5005C182.625 95.253 183.709 96.3005 184.455 97.6431C185.209 98.977 185.586 100.516 185.586 102.261C185.586 104.005 185.205 105.544 184.442 106.878C183.679 108.212 182.573 109.251 181.125 109.995C179.686 110.739 177.943 111.111 175.897 111.111H169.199V106.66H174.986C176.07 106.66 176.963 106.476 177.665 106.109C178.376 105.732 178.905 105.215 179.252 104.557C179.608 103.89 179.785 103.124 179.785 102.261C179.785 101.388 179.608 100.627 179.252 99.9775C178.905 99.3191 178.376 98.8103 177.665 98.4511C176.954 98.0834 176.053 97.8996 174.96 97.8996H171.162V119.628H165.531Z" fill="currentColor"/>
<path d="M189.244 119.628V93.359H194.876V104.197H206.308V93.359H211.927V119.628H206.308V108.777H194.876V119.628H189.244Z" fill="currentColor"/>
<path d="M216.57 119.628V93.359H234.518V97.9381H222.201V104.197H233.595V108.777H222.201V115.049H234.57V119.628H216.57Z" fill="currentColor"/>
<path d="M238.995 119.628V93.359H249.504C251.516 93.359 253.233 93.7138 254.655 94.4236C256.085 95.1248 257.173 96.121 257.919 97.4122C258.673 98.6948 259.051 100.204 259.051 101.94C259.051 103.684 258.669 105.185 257.906 106.442C257.143 107.691 256.038 108.648 254.59 109.315C253.15 109.982 251.407 110.316 249.361 110.316H242.325V105.852H248.451C249.526 105.852 250.419 105.707 251.13 105.416C251.841 105.125 252.37 104.689 252.717 104.108C253.072 103.526 253.25 102.804 253.25 101.94C253.25 101.068 253.072 100.332 252.717 99.7338C252.37 99.1352 251.837 98.682 251.117 98.3742C250.406 98.0578 249.509 97.8996 248.425 97.8996H244.627V119.628H238.995ZM253.38 107.673L260 119.628H253.783L247.306 107.673H253.38Z" fill="currentColor"/>
</svg>
